<svg width="64" height="64" viewBox="0 0 64 64" fill="none" xmlns="http://www.w3.org/2000/svg">
<path d="M45.0687 11.456C36.1565 6.71726 29.8447 6.999 28.7786 9.00398L24.1244 17.7573L22.4865 12.4L22.4419 12.2541C22.2205 11.5299 19.6896 9.75576 16.4714 10.7396C13.2538 11.7227 10.5691 15.0921 10.7905 15.8163L10.8351 15.9622L16.0352 32.9709L8.8301 46.5216C7.5268 48.9728 11.2745 53.5135 20.1867 58.2522C29.099 62.9909 34.9591 63.5588 36.2624 61.1076L56.2109 23.59C57.2769 21.585 53.981 16.1947 45.0687 11.456Z" fill="#745A49"/>
<path d="M45.0687 11.456C36.8891 7.10679 30.9126 6.99142 29.1586 8.55198C28.5158 11.4992 32.1701 15.9819 40.3497 20.3311C48.5294 24.6803 54.2892 25.2032 56.3731 23.0221C56.6868 20.6958 53.2484 15.8052 45.0687 11.456Z" fill="#D1A170"/>
<path d="M22.8802 13.6877L22.4865 12.4L22.4419 12.2541C22.2205 11.5299 19.6896 9.75576 16.4714 10.7396C13.2538 11.7227 10.5691 15.0921 10.7905 15.8163L10.8351 15.9622L11.1948 17.1387C17.125 18.3141 20.7626 16.0702 22.8802 13.6877Z" fill="#D1A170"/>
<path d="M31.687 56.0876C31.2417 55.8508 30.688 56.02 30.4512 56.4654L27.7468 61.5517C28.3798 61.7547 28.9762 61.9197 29.5471 62.0587L32.0649 57.3234C32.3017 56.878 32.1324 56.3244 31.687 56.0876Z" fill="#3D3028"/>
<path d="M28.1331 51.0931C27.6877 50.8563 27.134 51.0255 26.8972 51.4709L22.6381 59.4811C23.2089 59.7525 23.7647 60.0056 24.305 60.2391L28.5109 52.3289C28.7477 51.8835 28.5784 51.3299 28.1331 51.0931Z" fill="#3D3028"/>
<path d="M21.9027 55.0249C21.4574 54.7881 20.9037 54.9573 20.6669 55.4027L19.3859 57.8119C19.6524 57.9588 19.91 58.1051 20.1867 58.2522C20.4635 58.3994 20.7279 58.5307 20.9996 58.6699L22.2806 56.2607C22.5174 55.8153 22.3481 55.2617 21.9027 55.0249Z" fill="#3D3028"/>
<path d="M20.0136 48.8457C19.5682 48.6089 19.0146 48.7782 18.7777 49.2236L15.4676 55.4491C15.9577 55.7769 16.4674 56.1069 17.0105 56.4402L20.3914 50.0816C20.6282 49.6362 20.4589 49.0825 20.0136 48.8457Z" fill="#3D3028"/>
<path d="M17.3688 40.1949C16.9234 39.9581 16.3697 40.1274 16.1329 40.5727L10.4482 51.2641C10.8366 51.7034 11.2864 52.1558 11.7968 52.6207L17.7466 41.4307C17.9834 40.9854 17.8141 40.4317 17.3688 40.1949Z" fill="#3D3028"/>
<path d="M30.7338 13.0697L26.4281 21.2104C26.1921 21.6562 26.3622 22.2082 26.8068 22.4446C27.2534 22.681 27.8074 22.511 28.0434 22.0652L32.0337 14.5216C31.5388 14.0276 31.1029 13.5433 30.7338 13.0697Z" fill="#3D3028"/>
<path d="M34.1381 16.3701L27.4592 29.0032C27.2236 29.4482 27.3933 30.0011 27.8379 30.2374L27.8395 30.2383C28.2853 30.4743 28.8386 30.3038 29.0746 29.858L35.6264 17.4658C35.1005 17.0982 34.6003 16.7328 34.1381 16.3701Z" fill="#3D3028"/>
<path d="M41.163 20.748L39.0116 24.7943C38.7748 25.2397 38.944 25.7933 39.3894 26.0301C39.8348 26.2669 40.3884 26.0977 40.6252 25.6523L42.8058 21.5512C42.2708 21.3019 41.7224 21.0331 41.163 20.748Z" fill="#3D3028"/>
<path d="M47.0746 23.2548L39.9404 36.6724C39.7036 37.1178 39.8728 37.6715 40.3182 37.9083C40.7636 38.1451 41.3172 37.9758 41.554 37.5304L48.8728 23.7659C48.2979 23.6248 47.7007 23.4573 47.0746 23.2548Z" fill="#3D3028"/>
<path d="M50.7456 24.1366L46.5997 31.9338C46.3629 32.3792 46.5322 32.9328 46.9775 33.1696C47.4229 33.4064 47.9766 33.2372 48.2134 32.7918L52.7458 24.2676C52.1343 24.2789 51.4694 24.2389 50.7456 24.1366Z" fill="#3D3028"/>
</svg>
