<svg width="64" height="64" viewBox="0 0 64 64" fill="none" xmlns="http://www.w3.org/2000/svg">
<g clip-path="url(#clip0_137_184)">
<rect width="64" height="64" rx="5" fill="#7A7A7A"/>
<g clip-path="url(#clip1_137_184)">
<path d="M39.7555 0C27.5668 0 20.9968 3.87862 20.9968 6.62069V7.17241V18.592L16.2134 13.8086L16.0832 13.6783C15.4366 13.0317 11.7323 12.5749 8.85891 15.4483C5.98553 18.3206 5.03325 23.435 5.67987 24.0817L5.81008 24.2119L20.9968 39.3986V57.931C20.9968 61.2833 27.5668 64 39.7555 64C51.9442 64 58.5141 61.2833 58.5141 57.931V7.17241V6.62069C58.5141 3.87862 51.9442 0 39.7555 0Z" fill="#745A49"/>
<path d="M39.7542 0C28.5674 0 22.1299 3.2651 21.1445 5.92331C22.1299 9.43007 28.5674 12.1379 39.7542 12.1379C50.9409 12.1379 57.3785 9.43007 58.3638 5.92331C57.3796 3.2651 50.9409 0 39.7542 0Z" fill="#D1A170"/>
<path d="M17.3632 14.9582L16.2134 13.8084L16.0832 13.6782C15.4366 13.0316 11.7323 12.5748 8.8589 15.4482C5.98553 18.3204 5.03325 23.4349 5.67987 24.0815L5.81008 24.2117L6.86056 25.2622C13.8498 23.1535 16.4561 18.6989 17.3632 14.9582Z" fill="#D1A170"/>
<path d="M50.789 55.1729C50.1799 55.1729 49.6855 55.6672 49.6855 56.2763V63.2324C50.4756 63.0901 51.205 62.9279 51.8924 62.7524V56.2763C51.8924 55.6672 51.3981 55.1729 50.789 55.1729Z" fill="#3D3028"/>
<path d="M44.1679 51.8623C43.5588 51.8623 43.0645 52.3566 43.0645 52.9658V63.9208C43.8269 63.8866 44.5629 63.8413 45.2714 63.784V52.9658C45.2714 52.3566 44.777 51.8623 44.1679 51.8623Z" fill="#3D3028"/>
<path d="M39.7558 59.5859C39.1467 59.5859 38.6523 60.0803 38.6523 60.6894V63.9843C39.0198 63.9898 39.3773 63.9997 39.7558 63.9997C40.1343 63.9997 40.4907 63.9898 40.8592 63.9843V60.6894C40.8592 60.0803 40.3649 59.5859 39.7558 59.5859Z" fill="#3D3028"/>
<path d="M34.2382 54.0693C33.6291 54.0693 33.1348 54.5637 33.1348 55.1728V63.687C33.8432 63.7587 34.5737 63.8216 35.3417 63.8691V55.1728C35.3417 54.5637 34.8473 54.0693 34.2382 54.0693Z" fill="#3D3028"/>
<path d="M26.5136 46.3447C25.9045 46.3447 25.4102 46.8391 25.4102 47.4482V62.07C26.0733 62.3182 26.8093 62.5456 27.6171 62.7519V47.4482C27.6171 46.8391 27.1227 46.3447 26.5136 46.3447Z" fill="#3D3028"/>
<path d="M25.3867 9.84766L25.411 20.9682C25.4121 21.5773 25.9064 22.0694 26.5144 22.0694C27.1246 22.0683 27.619 21.5729 27.6179 20.9638L27.5958 10.6587C26.7881 10.4126 26.0488 10.1434 25.3867 9.84766Z" fill="#3D3028"/>
<path d="M30.8867 11.4365L30.9275 28.6922C30.9287 29.3002 31.423 29.7935 32.031 29.7935H32.0332C32.6423 29.7924 33.1355 29.2969 33.1344 28.6878L33.0947 11.7609C32.3256 11.6671 31.5852 11.5612 30.8867 11.4365Z" fill="#3D3028"/>
<path d="M40.8594 12.1209V17.6547C40.8594 18.2638 41.3537 18.7582 41.9628 18.7582C42.5719 18.7582 43.0663 18.2638 43.0663 17.6547V12.0459C42.3545 12.0834 41.6174 12.1077 40.8594 12.1209Z" fill="#3D3028"/>
<path d="M48.582 11.4432V29.7936C48.582 30.4027 49.0764 30.897 49.6855 30.897C50.2946 30.897 50.7889 30.4027 50.7889 29.7936V10.9688C50.096 11.1442 49.3644 11.3042 48.582 11.4432Z" fill="#3D3028"/>
<path d="M52.9961 10.3018V20.9655C52.9961 21.5747 53.4904 22.069 54.0995 22.069C54.7086 22.069 55.203 21.5747 55.203 20.9655V9.30762C54.5575 9.66624 53.8259 10.0006 52.9961 10.3018Z" fill="#3D3028"/>
</g>
</g>
<defs>
<clipPath id="clip0_137_184">
<rect width="64" height="64" rx="5" fill="white"/>
</clipPath>
<clipPath id="clip1_137_184">
<rect width="64" height="64" fill="white"/>
</clipPath>
</defs>
</svg>
