<svg width="64" height="64" viewBox="0 0 64 64" fill="none" xmlns="http://www.w3.org/2000/svg">
<g clip-path="url(#clip0_331_1665)">
<rect width="64" height="64" rx="5" fill="black"/>
<g clip-path="url(#clip1_331_1665)">
<path d="M49.4172 6.60817C39.849 0.831132 32.8244 0.819397 31.5045 3.01256L31.2389 3.45384L25.7418 12.5875L24.2894 6.49435L24.2499 6.3285C24.0535 5.50484 21.3655 3.38376 17.7267 4.32005C14.0885 5.25547 10.879 8.89479 11.0753 9.71844L11.1148 9.8843L15.7261 29.229L6.80506 44.0516C5.19137 46.7328 9.04108 52.0196 18.6093 57.7967C28.1775 63.5737 34.6427 64.5148 36.2564 61.8335L60.6902 21.2358L60.9558 20.7945C62.2758 18.6013 58.9854 12.3852 49.4172 6.60817Z" fill="#745A49"/>
<path d="M49.4193 6.60357C40.6376 1.30141 34.0123 0.861736 31.9592 2.52079C31.0447 5.7926 34.7947 11.0096 43.5764 16.3117C52.3581 21.6139 58.7151 22.4993 61.1767 20.1615C61.6836 17.5689 58.201 11.9057 49.4193 6.60357Z" fill="#D1A170"/>
<path d="M24.6404 7.95312L24.2912 6.48853L24.2517 6.32267C24.0554 5.49901 21.3674 3.37793 17.7286 4.31423C14.0903 5.24964 10.8808 8.88896 11.0771 9.71262L11.1167 9.87847L11.4356 11.2166C17.9373 12.8427 22.1277 10.5151 24.6404 7.95312Z" fill="#D1A170"/>
<path d="M31.5186 55.9742C31.0404 55.6855 30.4144 55.8466 30.1212 56.3337L26.7727 61.8974C27.4614 62.158 28.1121 62.374 28.7362 62.5595L31.8536 57.3797C32.1468 56.8926 31.9967 56.2629 31.5186 55.9742Z" fill="#3D3028"/>
<path d="M27.9111 50.189C27.433 49.9003 26.807 50.0614 26.5138 50.5486L21.2403 59.3106C21.8553 59.6447 22.4549 59.9573 23.0386 60.2472L28.2462 51.5946C28.5394 51.1074 28.3893 50.4777 27.9111 50.189Z" fill="#3D3028"/>
<path d="M20.7295 54.2715C20.2513 53.9828 19.6253 54.1439 19.3321 54.6311L17.746 57.2664C18.0318 57.445 18.3077 57.6224 18.6048 57.8018C18.9019 57.9812 19.1865 58.1421 19.4785 58.3124L21.0645 55.6771C21.3577 55.1899 21.2076 54.5602 20.7295 54.2715Z" fill="#3D3028"/>
<path d="M19.0537 47.2437C18.5756 46.955 17.9495 47.1161 17.6563 47.6033L13.5578 54.4131C14.0794 54.8062 14.6226 55.2028 15.2026 55.6047L19.3888 48.6493C19.682 48.1621 19.5319 47.5324 19.0537 47.2437Z" fill="#3D3028"/>
<path d="M16.7061 37.4068C16.2279 37.1181 15.6019 37.2792 15.3087 37.7663L8.27013 49.4612C8.67122 49.974 9.13956 50.5047 9.6743 51.0526L17.0411 38.8123C17.3343 38.3252 17.1842 37.6955 16.7061 37.4068Z" fill="#3D3028"/>
<path d="M33.3945 7.6709L28.0605 16.5768C27.7681 17.0645 27.9193 17.6925 28.3966 17.9806C28.8761 18.269 29.5027 18.107 29.795 17.6193L34.7383 9.36662C34.2227 8.78698 33.7719 8.22122 33.3945 7.6709Z" fill="#3D3028"/>
<path d="M36.9492 11.5513L28.6748 25.3721C28.383 25.8589 28.5336 26.4877 29.0109 26.7759L29.0127 26.7769C29.4913 27.0647 30.117 26.9023 30.4094 26.4146L38.5264 12.8573C37.9678 12.4177 37.4375 11.9821 36.9492 11.5513Z" fill="#3D3028"/>
<path d="M44.4502 16.8222L41.7864 21.2483C41.4932 21.7354 41.6433 22.3651 42.1214 22.6538C42.5996 22.9425 43.2256 22.7814 43.5188 22.2943L46.2188 17.8082C45.642 17.5009 45.0517 17.1709 44.4502 16.8222Z" fill="#3D3028"/>
<path d="M50.84 19.944L42.0066 34.6209C41.7134 35.1081 41.8635 35.7378 42.3416 36.0265C42.8198 36.3152 43.4458 36.1541 43.739 35.6669L52.8008 20.6105C52.1724 20.4223 51.521 20.2036 50.84 19.944Z" fill="#3D3028"/>
<path d="M54.8574 21.1199L49.7241 29.649C49.4309 30.1361 49.581 30.7658 50.0592 31.0545C50.5373 31.3432 51.1633 31.1821 51.4566 30.6949L57.0684 21.3707C56.389 21.3516 55.6538 21.2722 54.8574 21.1199Z" fill="#3D3028"/>
</g>
</g>
<defs>
<clipPath id="clip0_331_1665">
<rect width="64" height="64" rx="5" fill="white"/>
</clipPath>
<clipPath id="clip1_331_1665">
<rect width="64" height="64" fill="white"/>
</clipPath>
</defs>
</svg>
